<mxfile host="Electron" modified="2024-01-14T09:38:17.101Z" agent="Mozilla/5.0 (Windows NT 10.0; Win64; x64) AppleWebKit/537.36 (KHTML, like Gecko) draw.io/22.1.15 Chrome/120.0.6099.109 Electron/28.1.0 Safari/537.36" etag="Z6BNItfQjZITJrkF9ito" version="22.1.15" type="device">
  <diagram name="Page-1" id="J8VuEBKAINyy2FhF17C5">
    <mxGraphModel dx="880" dy="532" grid="1" gridSize="10" guides="1" tooltips="1" connect="1" arrows="1" fold="1" page="1" pageScale="1" pageWidth="827" pageHeight="1169" math="0" shadow="0">
      <root>
        <mxCell id="0" />
        <mxCell id="1" parent="0" />
        <mxCell id="ofxdcXZtX-PklUoTK2hp-1" value="&lt;font style=&quot;font-size: 14px;&quot;&gt;START&lt;/font&gt;" style="ellipse;whiteSpace=wrap;html=1;" parent="1" vertex="1">
          <mxGeometry x="105" y="20" width="110" height="50" as="geometry" />
        </mxCell>
        <mxCell id="E_YD2U8nQQsoXV37WMMe-10" style="edgeStyle=orthogonalEdgeStyle;rounded=0;orthogonalLoop=1;jettySize=auto;html=1;exitX=0.5;exitY=1;exitDx=0;exitDy=0;entryX=0.5;entryY=0;entryDx=0;entryDy=0;" edge="1" parent="1" source="E_YD2U8nQQsoXV37WMMe-2" target="E_YD2U8nQQsoXV37WMMe-4">
          <mxGeometry relative="1" as="geometry" />
        </mxCell>
        <mxCell id="E_YD2U8nQQsoXV37WMMe-11" value="&lt;font style=&quot;font-size: 14px;&quot;&gt;S&lt;/font&gt;" style="edgeLabel;html=1;align=center;verticalAlign=middle;resizable=0;points=[];" vertex="1" connectable="0" parent="E_YD2U8nQQsoXV37WMMe-10">
          <mxGeometry x="-0.12" relative="1" as="geometry">
            <mxPoint x="-1" as="offset" />
          </mxGeometry>
        </mxCell>
        <mxCell id="E_YD2U8nQQsoXV37WMMe-2" value="Nhấn nút B3 năm lần" style="rhombus;whiteSpace=wrap;html=1;" vertex="1" parent="1">
          <mxGeometry x="67.5" y="210" width="185" height="80" as="geometry" />
        </mxCell>
        <mxCell id="E_YD2U8nQQsoXV37WMMe-14" value="" style="edgeStyle=orthogonalEdgeStyle;rounded=0;orthogonalLoop=1;jettySize=auto;html=1;" edge="1" parent="1" source="E_YD2U8nQQsoXV37WMMe-4" target="E_YD2U8nQQsoXV37WMMe-13">
          <mxGeometry relative="1" as="geometry" />
        </mxCell>
        <mxCell id="E_YD2U8nQQsoXV37WMMe-4" value="Nhấn nút B1 một lần" style="rhombus;whiteSpace=wrap;html=1;" vertex="1" parent="1">
          <mxGeometry x="67.5" y="340" width="185" height="80" as="geometry" />
        </mxCell>
        <mxCell id="E_YD2U8nQQsoXV37WMMe-12" value="&lt;font style=&quot;font-size: 14px;&quot;&gt;S&lt;/font&gt;" style="edgeLabel;html=1;align=center;verticalAlign=middle;resizable=0;points=[];" vertex="1" connectable="0" parent="1">
          <mxGeometry x="159" y="440" as="geometry" />
        </mxCell>
        <mxCell id="E_YD2U8nQQsoXV37WMMe-32" style="edgeStyle=orthogonalEdgeStyle;rounded=0;orthogonalLoop=1;jettySize=auto;html=1;exitX=0.5;exitY=1;exitDx=0;exitDy=0;entryX=0.5;entryY=0;entryDx=0;entryDy=0;" edge="1" parent="1" source="E_YD2U8nQQsoXV37WMMe-13" target="E_YD2U8nQQsoXV37WMMe-17">
          <mxGeometry relative="1" as="geometry" />
        </mxCell>
        <mxCell id="E_YD2U8nQQsoXV37WMMe-40" value="&lt;font style=&quot;font-size: 14px;&quot;&gt;S&lt;/font&gt;" style="edgeLabel;html=1;align=center;verticalAlign=middle;resizable=0;points=[];" vertex="1" connectable="0" parent="E_YD2U8nQQsoXV37WMMe-32">
          <mxGeometry x="-0.0385" y="-2" relative="1" as="geometry">
            <mxPoint x="1" as="offset" />
          </mxGeometry>
        </mxCell>
        <mxCell id="E_YD2U8nQQsoXV37WMMe-13" value="Nhấn nút B2 một lần" style="rhombus;whiteSpace=wrap;html=1;" vertex="1" parent="1">
          <mxGeometry x="67.5" y="468" width="185" height="80" as="geometry" />
        </mxCell>
        <mxCell id="E_YD2U8nQQsoXV37WMMe-15" style="edgeStyle=orthogonalEdgeStyle;rounded=0;orthogonalLoop=1;jettySize=auto;html=1;exitX=0.5;exitY=1;exitDx=0;exitDy=0;entryX=0.5;entryY=0;entryDx=0;entryDy=0;" edge="1" parent="1" source="E_YD2U8nQQsoXV37WMMe-17" target="E_YD2U8nQQsoXV37WMMe-19">
          <mxGeometry relative="1" as="geometry" />
        </mxCell>
        <mxCell id="E_YD2U8nQQsoXV37WMMe-16" value="&lt;font style=&quot;font-size: 14px;&quot;&gt;S&lt;/font&gt;" style="edgeLabel;html=1;align=center;verticalAlign=middle;resizable=0;points=[];" vertex="1" connectable="0" parent="E_YD2U8nQQsoXV37WMMe-15">
          <mxGeometry x="-0.12" relative="1" as="geometry">
            <mxPoint x="-1" as="offset" />
          </mxGeometry>
        </mxCell>
        <mxCell id="E_YD2U8nQQsoXV37WMMe-17" value="Nhấn nút B4 một lần" style="rhombus;whiteSpace=wrap;html=1;" vertex="1" parent="1">
          <mxGeometry x="67.5" y="600" width="185" height="80" as="geometry" />
        </mxCell>
        <mxCell id="E_YD2U8nQQsoXV37WMMe-18" value="" style="edgeStyle=orthogonalEdgeStyle;rounded=0;orthogonalLoop=1;jettySize=auto;html=1;" edge="1" parent="1" source="E_YD2U8nQQsoXV37WMMe-19" target="E_YD2U8nQQsoXV37WMMe-21">
          <mxGeometry relative="1" as="geometry" />
        </mxCell>
        <mxCell id="E_YD2U8nQQsoXV37WMMe-19" value="Nhấn nút B5 một lần" style="rhombus;whiteSpace=wrap;html=1;" vertex="1" parent="1">
          <mxGeometry x="67.5" y="730" width="185" height="80" as="geometry" />
        </mxCell>
        <mxCell id="E_YD2U8nQQsoXV37WMMe-20" value="&lt;font style=&quot;font-size: 14px;&quot;&gt;S&lt;/font&gt;" style="edgeLabel;html=1;align=center;verticalAlign=middle;resizable=0;points=[];" vertex="1" connectable="0" parent="1">
          <mxGeometry x="159" y="830" as="geometry" />
        </mxCell>
        <mxCell id="E_YD2U8nQQsoXV37WMMe-33" style="edgeStyle=orthogonalEdgeStyle;rounded=0;orthogonalLoop=1;jettySize=auto;html=1;exitX=0.5;exitY=1;exitDx=0;exitDy=0;entryX=0.5;entryY=0;entryDx=0;entryDy=0;" edge="1" parent="1" source="E_YD2U8nQQsoXV37WMMe-21" target="E_YD2U8nQQsoXV37WMMe-23">
          <mxGeometry relative="1" as="geometry" />
        </mxCell>
        <mxCell id="E_YD2U8nQQsoXV37WMMe-44" value="&lt;font style=&quot;font-size: 14px;&quot;&gt;S&lt;/font&gt;" style="edgeLabel;html=1;align=center;verticalAlign=middle;resizable=0;points=[];" vertex="1" connectable="0" parent="E_YD2U8nQQsoXV37WMMe-33">
          <mxGeometry x="-0.125" relative="1" as="geometry">
            <mxPoint x="-1" as="offset" />
          </mxGeometry>
        </mxCell>
        <mxCell id="E_YD2U8nQQsoXV37WMMe-21" value="Nhấn giữ nút B1" style="rhombus;whiteSpace=wrap;html=1;" vertex="1" parent="1">
          <mxGeometry x="67.5" y="858" width="185" height="80" as="geometry" />
        </mxCell>
        <mxCell id="E_YD2U8nQQsoXV37WMMe-37" style="edgeStyle=orthogonalEdgeStyle;rounded=0;orthogonalLoop=1;jettySize=auto;html=1;exitX=0.5;exitY=1;exitDx=0;exitDy=0;entryX=0.5;entryY=0;entryDx=0;entryDy=0;" edge="1" parent="1" source="E_YD2U8nQQsoXV37WMMe-23" target="E_YD2U8nQQsoXV37WMMe-34">
          <mxGeometry relative="1" as="geometry" />
        </mxCell>
        <mxCell id="E_YD2U8nQQsoXV37WMMe-38" value="&lt;font style=&quot;font-size: 14px;&quot;&gt;S&lt;/font&gt;" style="edgeLabel;html=1;align=center;verticalAlign=middle;resizable=0;points=[];" vertex="1" connectable="0" parent="E_YD2U8nQQsoXV37WMMe-37">
          <mxGeometry y="2" relative="1" as="geometry">
            <mxPoint x="-3" as="offset" />
          </mxGeometry>
        </mxCell>
        <mxCell id="E_YD2U8nQQsoXV37WMMe-23" value="Nhấn giữ nút B5" style="rhombus;whiteSpace=wrap;html=1;" vertex="1" parent="1">
          <mxGeometry x="67.5" y="986" width="185" height="80" as="geometry" />
        </mxCell>
        <mxCell id="E_YD2U8nQQsoXV37WMMe-24" value="Hiển thị lên màn hình dòng text:&lt;br&gt;&quot;IOT Programming by Lumi Smarthome&quot;" style="shape=note;whiteSpace=wrap;html=1;backgroundOutline=1;darkOpacity=0.05;direction=south;size=18;" vertex="1" parent="1">
          <mxGeometry x="30" y="100" width="260" height="80" as="geometry" />
        </mxCell>
        <mxCell id="E_YD2U8nQQsoXV37WMMe-34" value="&lt;font style=&quot;font-size: 14px;&quot;&gt;END&lt;/font&gt;" style="ellipse;whiteSpace=wrap;html=1;" vertex="1" parent="1">
          <mxGeometry x="105" y="1110" width="110" height="50" as="geometry" />
        </mxCell>
        <mxCell id="E_YD2U8nQQsoXV37WMMe-73" style="edgeStyle=orthogonalEdgeStyle;rounded=0;orthogonalLoop=1;jettySize=auto;html=1;exitX=0;exitY=0;exitDx=30;exitDy=0;exitPerimeter=0;entryX=1;entryY=0.5;entryDx=0;entryDy=0;" edge="1" parent="1" source="E_YD2U8nQQsoXV37WMMe-39" target="E_YD2U8nQQsoXV37WMMe-34">
          <mxGeometry relative="1" as="geometry">
            <mxPoint x="510" y="310" as="targetPoint" />
            <Array as="points">
              <mxPoint x="740" y="240" />
              <mxPoint x="740" y="1135" />
            </Array>
          </mxGeometry>
        </mxCell>
        <mxCell id="E_YD2U8nQQsoXV37WMMe-39" value="&amp;nbsp; - Nháy năm lần màu GREEN tất cả các Led trên Kit mở&amp;nbsp; &amp;nbsp; &amp;nbsp; &amp;nbsp; &amp;nbsp; &amp;nbsp; rộng và xuất thông tin thiết bị ra màn hình LCD&lt;br style=&quot;&quot;&gt;&lt;span style=&quot;background-color: initial;&quot;&gt;&amp;nbsp; - Cập nhật giá trị nhiệt độ, độ ẩm, cường độ ánh sáng lên&amp;nbsp; &amp;nbsp; &amp;nbsp; &amp;nbsp; &amp;nbsp;màn hình LCD&lt;/span&gt;" style="shape=note;whiteSpace=wrap;html=1;backgroundOutline=1;darkOpacity=0.05;direction=south;align=left;size=20;" vertex="1" parent="1">
          <mxGeometry x="330" y="210" width="330" height="80" as="geometry" />
        </mxCell>
        <mxCell id="E_YD2U8nQQsoXV37WMMe-79" style="edgeStyle=orthogonalEdgeStyle;rounded=0;orthogonalLoop=1;jettySize=auto;html=1;exitX=0;exitY=0;exitDx=30;exitDy=0;exitPerimeter=0;" edge="1" parent="1" source="E_YD2U8nQQsoXV37WMMe-45">
          <mxGeometry relative="1" as="geometry">
            <mxPoint x="740" y="888" as="targetPoint" />
          </mxGeometry>
        </mxCell>
        <mxCell id="E_YD2U8nQQsoXV37WMMe-45" value="&amp;nbsp; &amp;nbsp;Tăng độ sáng của LED. Nhả ra thì dừng điều khiển" style="shape=note;whiteSpace=wrap;html=1;backgroundOutline=1;darkOpacity=0.05;direction=south;align=left;size=20;" vertex="1" parent="1">
          <mxGeometry x="330" y="858" width="330" height="80" as="geometry" />
        </mxCell>
        <mxCell id="E_YD2U8nQQsoXV37WMMe-78" style="edgeStyle=orthogonalEdgeStyle;rounded=0;orthogonalLoop=1;jettySize=auto;html=1;exitX=0;exitY=0;exitDx=30;exitDy=0;exitPerimeter=0;" edge="1" parent="1" source="E_YD2U8nQQsoXV37WMMe-46">
          <mxGeometry relative="1" as="geometry">
            <mxPoint x="740" y="760" as="targetPoint" />
          </mxGeometry>
        </mxCell>
        <mxCell id="E_YD2U8nQQsoXV37WMMe-46" value="&amp;nbsp; &amp;nbsp;Bật / tắt màu BLUE của tất cả các LED trên KIT mở rộng&amp;nbsp; &amp;nbsp; &amp;nbsp; &amp;nbsp; &amp;nbsp;đồng thời còi sẽ kêu bíp 1 lần" style="shape=note;whiteSpace=wrap;html=1;backgroundOutline=1;darkOpacity=0.05;direction=south;align=left;size=20;" vertex="1" parent="1">
          <mxGeometry x="330" y="730" width="330" height="80" as="geometry" />
        </mxCell>
        <mxCell id="E_YD2U8nQQsoXV37WMMe-77" style="edgeStyle=orthogonalEdgeStyle;rounded=0;orthogonalLoop=1;jettySize=auto;html=1;exitX=0;exitY=0;exitDx=30;exitDy=0;exitPerimeter=0;" edge="1" parent="1" source="E_YD2U8nQQsoXV37WMMe-47">
          <mxGeometry relative="1" as="geometry">
            <mxPoint x="740" y="630" as="targetPoint" />
          </mxGeometry>
        </mxCell>
        <mxCell id="E_YD2U8nQQsoXV37WMMe-47" value="&amp;nbsp; &amp;nbsp;Bật / tắt màu WHITE của tất cả các LED trên KIT mở rộng&amp;nbsp; &amp;nbsp; &amp;nbsp;đồng thời còi sẽ kêu bíp 1 lần" style="shape=note;whiteSpace=wrap;html=1;backgroundOutline=1;darkOpacity=0.05;direction=south;align=left;size=20;" vertex="1" parent="1">
          <mxGeometry x="330" y="600" width="330" height="80" as="geometry" />
        </mxCell>
        <mxCell id="E_YD2U8nQQsoXV37WMMe-76" style="edgeStyle=orthogonalEdgeStyle;rounded=0;orthogonalLoop=1;jettySize=auto;html=1;exitX=0;exitY=0;exitDx=30;exitDy=0;exitPerimeter=0;" edge="1" parent="1" source="E_YD2U8nQQsoXV37WMMe-48">
          <mxGeometry relative="1" as="geometry">
            <mxPoint x="740" y="498" as="targetPoint" />
          </mxGeometry>
        </mxCell>
        <mxCell id="E_YD2U8nQQsoXV37WMMe-48" value="&amp;nbsp; &amp;nbsp;Bật / tắt màu GREEN của tất cả các LED trên KIT mở rộng&amp;nbsp; &amp;nbsp; &amp;nbsp;đồng thời còi sẽ kêu bíp 1 lần" style="shape=note;whiteSpace=wrap;html=1;backgroundOutline=1;darkOpacity=0.05;direction=south;align=left;size=20;" vertex="1" parent="1">
          <mxGeometry x="330" y="468" width="330" height="80" as="geometry" />
        </mxCell>
        <mxCell id="E_YD2U8nQQsoXV37WMMe-75" style="edgeStyle=orthogonalEdgeStyle;rounded=0;orthogonalLoop=1;jettySize=auto;html=1;exitX=0;exitY=0;exitDx=30;exitDy=0;exitPerimeter=0;" edge="1" parent="1" source="E_YD2U8nQQsoXV37WMMe-49">
          <mxGeometry relative="1" as="geometry">
            <mxPoint x="740" y="370" as="targetPoint" />
          </mxGeometry>
        </mxCell>
        <mxCell id="E_YD2U8nQQsoXV37WMMe-49" value="&lt;div&gt;&amp;nbsp; &amp;nbsp;Bật / tắt màu RED của tất cả các LED trên KIT mở rộng&amp;nbsp; &amp;nbsp; &amp;nbsp; &amp;nbsp; &amp;nbsp;đồng thời còi sẽ kêu bíp 1 lần&lt;/div&gt;" style="shape=note;whiteSpace=wrap;html=1;backgroundOutline=1;darkOpacity=0.05;direction=south;align=left;size=20;" vertex="1" parent="1">
          <mxGeometry x="330" y="340" width="330" height="80" as="geometry" />
        </mxCell>
        <mxCell id="E_YD2U8nQQsoXV37WMMe-80" style="edgeStyle=orthogonalEdgeStyle;rounded=0;orthogonalLoop=1;jettySize=auto;html=1;exitX=0;exitY=0;exitDx=30;exitDy=0;exitPerimeter=0;" edge="1" parent="1" source="E_YD2U8nQQsoXV37WMMe-50">
          <mxGeometry relative="1" as="geometry">
            <mxPoint x="740" y="1016" as="targetPoint" />
          </mxGeometry>
        </mxCell>
        <mxCell id="E_YD2U8nQQsoXV37WMMe-50" value="&amp;nbsp; &amp;nbsp;Giảm độ sáng của LED. Nhả ra thì dừng điều khiển" style="shape=note;whiteSpace=wrap;html=1;backgroundOutline=1;darkOpacity=0.05;direction=south;align=left;size=20;" vertex="1" parent="1">
          <mxGeometry x="330" y="986" width="330" height="80" as="geometry" />
        </mxCell>
        <mxCell id="E_YD2U8nQQsoXV37WMMe-51" style="edgeStyle=orthogonalEdgeStyle;rounded=0;orthogonalLoop=1;jettySize=auto;html=1;exitX=0.5;exitY=1;exitDx=0;exitDy=0;entryX=0;entryY=0.5;entryDx=0;entryDy=0;entryPerimeter=0;" edge="1" parent="1" source="ofxdcXZtX-PklUoTK2hp-1" target="E_YD2U8nQQsoXV37WMMe-24">
          <mxGeometry relative="1" as="geometry" />
        </mxCell>
        <mxCell id="E_YD2U8nQQsoXV37WMMe-52" value="" style="endArrow=classic;html=1;rounded=0;" edge="1" parent="1">
          <mxGeometry width="50" height="50" relative="1" as="geometry">
            <mxPoint x="160" y="180" as="sourcePoint" />
            <mxPoint x="160" y="210" as="targetPoint" />
          </mxGeometry>
        </mxCell>
        <mxCell id="E_YD2U8nQQsoXV37WMMe-53" style="edgeStyle=orthogonalEdgeStyle;rounded=0;orthogonalLoop=1;jettySize=auto;html=1;exitX=1;exitY=0.5;exitDx=0;exitDy=0;entryX=0.5;entryY=1;entryDx=0;entryDy=0;entryPerimeter=0;" edge="1" parent="1" source="E_YD2U8nQQsoXV37WMMe-2" target="E_YD2U8nQQsoXV37WMMe-39">
          <mxGeometry relative="1" as="geometry" />
        </mxCell>
        <mxCell id="E_YD2U8nQQsoXV37WMMe-54" value="&lt;span style=&quot;font-size: 14px;&quot;&gt;Đ&lt;/span&gt;" style="edgeLabel;html=1;align=center;verticalAlign=middle;resizable=0;points=[];" vertex="1" connectable="0" parent="E_YD2U8nQQsoXV37WMMe-53">
          <mxGeometry x="-0.0065" y="1" relative="1" as="geometry">
            <mxPoint x="1" as="offset" />
          </mxGeometry>
        </mxCell>
        <mxCell id="E_YD2U8nQQsoXV37WMMe-55" style="edgeStyle=orthogonalEdgeStyle;rounded=0;orthogonalLoop=1;jettySize=auto;html=1;exitX=1;exitY=0.5;exitDx=0;exitDy=0;entryX=0.5;entryY=1;entryDx=0;entryDy=0;entryPerimeter=0;" edge="1" parent="1" source="E_YD2U8nQQsoXV37WMMe-4" target="E_YD2U8nQQsoXV37WMMe-49">
          <mxGeometry relative="1" as="geometry" />
        </mxCell>
        <mxCell id="E_YD2U8nQQsoXV37WMMe-56" value="&lt;span style=&quot;font-size: 14px;&quot;&gt;Đ&lt;/span&gt;" style="edgeLabel;html=1;align=center;verticalAlign=middle;resizable=0;points=[];" vertex="1" connectable="0" parent="E_YD2U8nQQsoXV37WMMe-55">
          <mxGeometry x="-0.0323" y="-1" relative="1" as="geometry">
            <mxPoint x="1" as="offset" />
          </mxGeometry>
        </mxCell>
        <mxCell id="E_YD2U8nQQsoXV37WMMe-57" style="edgeStyle=orthogonalEdgeStyle;rounded=0;orthogonalLoop=1;jettySize=auto;html=1;exitX=1;exitY=0.5;exitDx=0;exitDy=0;entryX=0.5;entryY=1;entryDx=0;entryDy=0;entryPerimeter=0;" edge="1" parent="1" source="E_YD2U8nQQsoXV37WMMe-13" target="E_YD2U8nQQsoXV37WMMe-48">
          <mxGeometry relative="1" as="geometry" />
        </mxCell>
        <mxCell id="E_YD2U8nQQsoXV37WMMe-58" value="&lt;span style=&quot;font-size: 14px;&quot;&gt;Đ&lt;/span&gt;" style="edgeLabel;html=1;align=center;verticalAlign=middle;resizable=0;points=[];" vertex="1" connectable="0" parent="E_YD2U8nQQsoXV37WMMe-57">
          <mxGeometry x="-0.0065" y="1" relative="1" as="geometry">
            <mxPoint x="1" as="offset" />
          </mxGeometry>
        </mxCell>
        <mxCell id="E_YD2U8nQQsoXV37WMMe-59" style="edgeStyle=orthogonalEdgeStyle;rounded=0;orthogonalLoop=1;jettySize=auto;html=1;exitX=1;exitY=0.5;exitDx=0;exitDy=0;entryX=0.5;entryY=1;entryDx=0;entryDy=0;entryPerimeter=0;" edge="1" parent="1" source="E_YD2U8nQQsoXV37WMMe-17" target="E_YD2U8nQQsoXV37WMMe-47">
          <mxGeometry relative="1" as="geometry" />
        </mxCell>
        <mxCell id="E_YD2U8nQQsoXV37WMMe-60" value="&lt;font style=&quot;font-size: 14px;&quot;&gt;Đ&lt;/font&gt;" style="edgeLabel;html=1;align=center;verticalAlign=middle;resizable=0;points=[];" vertex="1" connectable="0" parent="E_YD2U8nQQsoXV37WMMe-59">
          <mxGeometry x="-0.0065" y="-1" relative="1" as="geometry">
            <mxPoint x="1" as="offset" />
          </mxGeometry>
        </mxCell>
        <mxCell id="E_YD2U8nQQsoXV37WMMe-61" style="edgeStyle=orthogonalEdgeStyle;rounded=0;orthogonalLoop=1;jettySize=auto;html=1;exitX=1;exitY=0.5;exitDx=0;exitDy=0;entryX=0.5;entryY=1;entryDx=0;entryDy=0;entryPerimeter=0;" edge="1" parent="1" source="E_YD2U8nQQsoXV37WMMe-19" target="E_YD2U8nQQsoXV37WMMe-46">
          <mxGeometry relative="1" as="geometry" />
        </mxCell>
        <mxCell id="E_YD2U8nQQsoXV37WMMe-62" value="&lt;font style=&quot;font-size: 14px;&quot;&gt;Đ&lt;/font&gt;" style="edgeLabel;html=1;align=center;verticalAlign=middle;resizable=0;points=[];" vertex="1" connectable="0" parent="E_YD2U8nQQsoXV37WMMe-61">
          <mxGeometry x="-0.0065" relative="1" as="geometry">
            <mxPoint x="1" as="offset" />
          </mxGeometry>
        </mxCell>
        <mxCell id="E_YD2U8nQQsoXV37WMMe-63" style="edgeStyle=orthogonalEdgeStyle;rounded=0;orthogonalLoop=1;jettySize=auto;html=1;exitX=1;exitY=0.5;exitDx=0;exitDy=0;entryX=0.5;entryY=1;entryDx=0;entryDy=0;entryPerimeter=0;" edge="1" parent="1" source="E_YD2U8nQQsoXV37WMMe-21" target="E_YD2U8nQQsoXV37WMMe-45">
          <mxGeometry relative="1" as="geometry" />
        </mxCell>
        <mxCell id="E_YD2U8nQQsoXV37WMMe-64" value="&lt;span style=&quot;font-size: 14px;&quot;&gt;Đ&lt;/span&gt;" style="edgeLabel;html=1;align=center;verticalAlign=middle;resizable=0;points=[];" vertex="1" connectable="0" parent="E_YD2U8nQQsoXV37WMMe-63">
          <mxGeometry x="-0.0065" y="-1" relative="1" as="geometry">
            <mxPoint x="1" as="offset" />
          </mxGeometry>
        </mxCell>
        <mxCell id="E_YD2U8nQQsoXV37WMMe-65" style="edgeStyle=orthogonalEdgeStyle;rounded=0;orthogonalLoop=1;jettySize=auto;html=1;exitX=1;exitY=0.5;exitDx=0;exitDy=0;entryX=0.5;entryY=1;entryDx=0;entryDy=0;entryPerimeter=0;" edge="1" parent="1" source="E_YD2U8nQQsoXV37WMMe-23" target="E_YD2U8nQQsoXV37WMMe-50">
          <mxGeometry relative="1" as="geometry" />
        </mxCell>
        <mxCell id="E_YD2U8nQQsoXV37WMMe-66" value="&lt;span style=&quot;font-size: 14px;&quot;&gt;Đ&lt;/span&gt;" style="edgeLabel;html=1;align=center;verticalAlign=middle;resizable=0;points=[];" vertex="1" connectable="0" parent="E_YD2U8nQQsoXV37WMMe-65">
          <mxGeometry x="0.0452" y="-1" relative="1" as="geometry">
            <mxPoint as="offset" />
          </mxGeometry>
        </mxCell>
      </root>
    </mxGraphModel>
  </diagram>
</mxfile>
